<svg width="128" height="128" viewBox="0 0 128 128" fill="none" xmlns="http://www.w3.org/2000/svg">
  <rect width="128" height="128" rx="28" fill="#FFF9F4"/>
  <rect x="12" y="12" width="104" height="104" rx="24" fill="#F8FBFF"/>
  <rect x="24" y="24" width="80" height="80" rx="20" fill="#FFFFFF"/>
  <path d="M38 42C38 38.6863 40.6863 36 44 36H84C87.3137 36 90 38.6863 90 42V86C90 89.3137 87.3137 92 84 92H44C40.6863 92 38 89.3137 38 86V42Z" fill="#EDF4FF"/>
  <path d="M48 49H80" stroke="#8CB7FF" stroke-width="6" stroke-linecap="round"/>
  <path d="M48 64H80" stroke="#F39AC4" stroke-width="6" stroke-linecap="round"/>
  <path d="M48 79H68" stroke="#7FD3AF" stroke-width="6" stroke-linecap="round"/>
  <circle cx="92" cy="36" r="10" fill="#F0B76E"/>
  <path d="M92 30V36L96 40" stroke="#FFFFFF" stroke-width="4" stroke-linecap="round" stroke-linejoin="round"/>
</svg>
